Coordinates
version=1
nRows=14
nColumns=40
inDegrees=yes

Units are S.I. units (second, meters, Newtons, ...)
If the header above contains a line with 'inDegrees', this indicates whether rotational values are in degrees (yes) or radians (no).

endheader
time	pelvis_tilt	pelvis_list	pelvis_rotation	pelvis_tx	pelvis_ty	pelvis_tz	hip_flexion_r	hip_adduction_r	hip_rotation_r	knee_angle_r	knee_angle_r_beta	ankle_angle_r	subtalar_angle_r	mtp_angle_r	hip_flexion_l	hip_adduction_l	hip_rotation_l	knee_angle_l	knee_angle_l_beta	ankle_angle_l	subtalar_angle_l	mtp_angle_l	lumbar_extension	lumbar_bending	lumbar_rotation	arm_flex_r	arm_add_r	arm_rot_r	elbow_flex_r	pro_sup_r	wrist_flex_r	wrist_dev_r	arm_flex_l	arm_add_l	arm_rot_l	elbow_flex_l	pro_sup_l	wrist_flex_l	wrist_dev_l
      4.40000000	    -22.78510812	      5.08410860	      4.65426206	     -0.30221005	      0.87411726	     -0.97905699	     29.18972998	     -6.34471276	     -5.46651027	     89.09851674	      1.55506248	     -3.23290811	      0.00000000	      0.00000000	     59.10504428	      8.01764360	     -2.90234300	     66.29140417	      1.15700327	     22.71853526	      0.00000000	      0.00000000	      5.01309687	    -10.09372865	     -8.63542943	     89.95523153	     -2.39425728	     31.83017657	     54.94959550	     84.26385745	      0.00000000	      0.00000000	     89.96323753	    -19.03598402	     33.23945743	     64.17743576	     81.52857515	      0.00000000	      0.00000000
      4.40500000	    -22.77399323	      5.07100494	      4.65306473	     -0.30189067	      0.87516741	     -0.97905524	     29.21699673	     -6.33708160	     -5.46689973	     89.08358463	      1.55480186	     -3.22485457	      0.00000000	      0.00000000	     59.03436905	      8.01317137	     -2.89534208	     66.25017992	      1.15628377	     22.70182846	      0.00000000	      0.00000000	      5.05038069	    -10.09063533	     -8.63656265	     89.95512352	     -2.38973125	     31.81654271	     54.97027443	     84.26291688	      0.00000000	      0.00000000	     89.96323683	    -19.04254557	     33.21817130	     64.19810500	     81.52950612	      0.00000000	      0.00000000
      4.41000000	    -22.68363308	      5.02196750	      4.63348774	     -0.30159651	      0.87648371	     -0.97896147	     29.19772604	     -6.21999199	     -5.40071985	     89.10048941	      1.55509691	     -3.20580357	      0.00000000	      0.00000000	     58.71163753	      7.97941728	     -2.81415912	     65.80028737	      1.14843166	     22.54240412	      0.00000000	      0.00000000	      5.00077337	    -10.02772941	     -8.61442003	     89.95510739	     -2.39784358	     31.88838499	     54.93891823	     84.26249223	      0.00000000	      0.00000000	     89.96313764	    -19.08346736	     33.28757581	     64.22096430	     81.54604876	      0.00000000	      0.00000000
      4.41500000	    -22.65487941	      5.01101061	      4.62001891	     -0.30128892	      0.87759726	     -0.97892233	     29.20911879	     -6.19021565	     -5.35735422	     89.05591764	      1.55431898	     -3.22425514	      0.00000000	      0.00000000	     58.53555174	      7.96552645	     -2.78067617	     65.55128894	      1.14408582	     22.44478571	      0.00000000	      0.00000000	      5.02108446	    -10.02271272	     -8.59783825	     89.95504769	     -2.41915424	     31.91296352	     54.94328306	     84.26036904	      0.00000000	      0.00000000	     89.96314887	    -19.11060135	     33.30030875	     64.26478158	     81.55879642	      0.00000000	      0.00000000
      4.42000000	    -22.59181790	      4.96394259	      4.59780260	     -0.30098527	      0.87872849	     -0.97882906	     29.20840402	     -6.11842882	     -5.35429972	     89.08928132	      1.55490129	     -3.21323777	      0.00000000	      0.00000000	     58.33662948	      7.92939040	     -2.71826424	     65.33734725	      1.14035183	     22.36932825	      0.00000000	      0.00000000	      5.00841020	     -9.98088771	     -8.60916697	     89.95498857	     -2.39361764	     31.94454983	     54.94587155	     84.25908424	      0.00000000	      0.00000000	     89.96309181	    -19.12573445	     33.31211698	     64.30182061	     81.56975721	      0.00000000	      0.00000000
      4.42500000	    -22.59037701	      4.94521153	      4.61105215	     -0.30054299	      0.87978116	     -0.97891630	     29.22903181	     -6.11643800	     -5.35005563	     89.06141809	      1.55441498	     -3.20591472	      0.00000000	      0.00000000	     58.26354530	      7.92606486	     -2.71181889	     65.28833632	      1.13949643	     22.34845804	      0.00000000	      0.00000000	      5.05931315	     -9.96343508	     -8.60615178	     89.95481331	     -2.39922982	     31.93193751	     54.96079356	     84.25817531	      0.00000000	      0.00000000	     89.96297959	    -19.13777726	     33.29567799	     64.31572537	     81.57088312	      0.00000000	      0.00000000
      4.43000000	    -22.51166553	      4.88166248	      4.60135969	     -0.30033042	      0.88110833	     -0.97880891	     29.22014071	     -6.01290641	     -5.32013031	     89.02375529	      1.55375764	     -3.19209491	      0.00000000	      0.00000000	     57.94234674	      7.87922989	     -2.61959470	     64.79384807	      1.13086598	     22.17519404	      0.00000000	      0.00000000	      5.02094326	     -9.88431724	     -8.59636365	     89.95483138	     -2.40735927	     31.99945499	     54.92906259	     84.25725082	      0.00000000	      0.00000000	     89.96301287	    -19.18220372	     33.33519810	     64.32296339	     81.58417213	      0.00000000	      0.00000000
      4.43500000	    -22.50075350	      4.87228336	      4.59260976	     -0.29984175	      0.88204920	     -0.97882878	     29.23188786	     -6.00056390	     -5.33308452	     89.01462484	      1.55359829	     -3.18833899	      0.00000000	      0.00000000	     57.85861626	      7.87675481	     -2.61243222	     64.75971725	      1.13027029	     22.15890750	      0.00000000	      0.00000000	      5.08706182	     -9.88395566	     -8.59586726	     89.95458433	     -2.40034608	     31.99022960	     54.94609651	     84.25657055	      0.00000000	      0.00000000	     89.96285828	    -19.18520896	     33.31971062	     64.34113225	     81.58526440	      0.00000000	      0.00000000
      4.44000000	    -22.36832787	      4.81433198	      4.55047098	     -0.29950330	      0.88338815	     -0.97871585	     29.15801426	     -5.89303615	     -5.30683167	     88.99085739	      1.55318347	     -3.17743925	      0.00000000	      0.00000000	     57.49295648	      7.81184449	     -2.52861622	     64.32039317	      1.12260264	     21.98491738	      0.00000000	      0.00000000	      4.99756203	     -9.80458711	     -8.57874646	     89.95468515	     -2.38558757	     32.07420663	     54.89393073	     84.25652996	      0.00000000	      0.00000000	     89.96289417	    -19.23398608	     33.37062435	     64.31975965	     81.59837602	      0.00000000	      0.00000000
      4.44500000	    -22.25638505	      4.81024088	      4.52483715	     -0.29907961	      0.88462107	     -0.97868067	     29.07691681	     -5.85433950	     -5.25145314	     88.96409195	      1.55271632	     -3.17855283	      0.00000000	      0.00000000	     57.21393462	      7.80545498	     -2.49139828	     64.06326697	      1.11811494	     21.89362370	      0.00000000	      0.00000000	      4.93297276	     -9.78612385	     -8.55559401	     89.95464447	     -2.39450010	     32.14411952	     54.87383122	     84.25493328	      0.00000000	      0.00000000	     89.96280157	    -19.25871330	     33.45368079	     64.31919229	     81.61512215	      0.00000000	      0.00000000
      4.45000000	    -22.15472996	      4.78161310	      4.49903066	     -0.29878854	      0.88593429	     -0.97854515	     29.03565502	     -5.78979246	     -5.23789858	     88.94714118	      1.55242047	     -3.15916948	      0.00000000	      0.00000000	     56.95933417	      7.76298731	     -2.45649383	     63.81000151	      1.11369462	     21.80833881	      0.00000000	      0.00000000	      4.87395476	     -9.75949958	     -8.53592148	     89.95460687	     -2.39426702	     32.15960150	     54.85560324	     84.25193502	      0.00000000	      0.00000000	     89.96286882	    -19.26635063	     33.42092633	     64.34705349	     81.62491554	      0.00000000	      0.00000000
      4.45500000	    -22.14920266	      4.77270798	      4.49050862	     -0.29841905	      0.88683636	     -0.97857976	     29.05181579	     -5.79199576	     -5.23638096	     88.92975663	      1.55211706	     -3.15450940	      0.00000000	      0.00000000	     56.89576687	      7.74922677	     -2.45086602	     63.77594936	      1.11310030	     21.79298149	      0.00000000	      0.00000000	      4.92527348	     -9.75520274	     -8.54028408	     89.95446596	     -2.38723899	     32.14611508	     54.87560958	     84.25107790	      0.00000000	      0.00000000	     89.96271128	    -19.26753208	     33.40525778	     64.35972259	     81.62560267	      0.00000000	      0.00000000
      4.46000000	    -22.08549957	      4.68205681	      4.47556238	     -0.29799067	      0.88817941	     -0.97851721	     29.04453917	     -5.67906402	     -5.25186294	     88.89054515	      1.55143269	     -3.15849986	      0.00000000	      0.00000000	     56.58621396	      7.67967972	     -2.35928552	     63.32801298	      1.10528234	     21.61923936	      0.00000000	      0.00000000	      4.91735377	     -9.64831627	     -8.51989738	     89.95437370	     -2.38927413	     32.21171708	     54.83749131	     84.24993904	      0.00000000	      0.00000000	     89.96268591	    -19.28970355	     33.46611254	     64.33483128	     81.63859806	      0.00000000	      0.00000000
      4.46500000	    -22.06201749	      4.67750150	      4.48872754	     -0.29779810	      0.88918381	     -0.97844590	     29.07487028	     -5.66309326	     -5.24434588	     88.86959355	      1.55106701	     -3.15428459	      0.00000000	      0.00000000	     56.51363047	      7.67420365	     -2.35270395	     63.28489359	      1.10452976	     21.59756179	      0.00000000	      0.00000000	      4.93593443	     -9.65291116	     -8.52710906	     89.95429524	     -2.38873974	     32.19970447	     54.85201888	     84.24900201	      0.00000000	      0.00000000	     89.96264611	    -19.29014667	     33.44924715	     64.34961769	     81.63951807	      0.00000000	      0.00000000
